<?xml version='1.0' encoding='utf-8'?>
<!DOCTYPE svg PUBLIC '-//W3C//DTD SVG 1.1//EN' 'http://www.w3.org/Graphics/SVG/1.1/DTD/svg11.dtd'>
<svg version="1.1" xmlns="http://www.w3.org/2000/svg" viewBox="0 0 512 512" xmlns:xlink="http://www.w3.org/1999/xlink" enable-background="new 0 0 512 512">
  <g>
    <g>
      <path d="m305.9,375.6l-24.5-46.6v172l166.5-22.5v-72.5c0-0.1 0-0.1 0-0.2l-123-17c-8.1-1.1-15.2-6-19-13.2z"/>
      <polygon points="344.7,340.4 497.5,361.5 469,278.6 301.1,257.9 344.7,340.4   "/>
      <polygon points="210.9,257.9 43,278.6 14.5,361.5 167.3,340.4 210.9,257.9   "/>
      <path d="m187.1,388.8l-122.9,17v72.7l166.4,22.5v-172l-24.6,46.5c-3.7,7.3-10.8,12.2-18.9,13.3z"/>
      <path d="m336.1,108.5c-7.4-8.3-20.1-9.1-28.4-1.7l-31.6,28v-103.7c0-11.1-9-20.1-20.1-20.1-11.1,0-20.1,9-20.1,20.1v103.7l-31.6-28c-8.3-7.4-21.1-6.6-28.4,1.7-7.4,8.3-6.6,21 1.7,28.4l65.1,57.7c7.6,8.1 20.4,6.4 26.7,0l65.1-57.7c8.2-7.4 9-20.1 1.6-28.4z"/>
    </g>
  </g>
</svg>
