<?xml version="1.0" standalone="no"?>
<!DOCTYPE svg PUBLIC "-//W3C//DTD SVG 1.0//EN" "http://www.w3.org/TR/2001/REC-SVG-20010904/DTD/svg10.dtd">
<svg xmlns="http://www.w3.org/2000/svg" xmlns:xlink="http://www.w3.org/1999/xlink" id="body_1" width="979" height="979">

<g transform="matrix(0.9997947 0 0 0.9997947 0 0)">
	<g>
	</g>
    <path d="M749.451 190.2C 749.451 159.7 737.35 130.4 715.751 108.799995L715.751 108.799995L640.65 33.7C 619.051 12.1 589.751 0 559.251 0L559.251 0L289.65097 0C 256.55096 0 229.65097 26.9 229.65097 60L229.65097 60L229.65097 252.7L749.551 252.7L749.551 190.2L749.451 190.2z" stroke="none" fill="#000000" fill-rule="nonzero" />
	<g>
	</g>
    <path d="M62.351 822.101L165.351 822.101L165.351 613.7L229.651 613.7L749.551 613.7L813.851 613.7L813.851 822.1L916.851 822.1C 949.952 822.1 976.851 795.19995 976.851 762.1L976.851 762.1L976.851 382.6C 976.851 349.5 949.952 322.6 916.851 322.6L916.851 322.6L749.451 322.6L229.651 322.6L62.350998 322.6C 29.251 322.6 2.350998 349.5 2.350998 382.6L2.350998 382.6L2.350998 762.1C 2.351 795.3 29.151 822.101 62.351 822.101zM157.251 404.601C 192.05101 404.601 220.251 432.80002 220.251 467.601C 220.251 502.401 192.05101 530.601 157.251 530.601C 122.451004 530.601 94.25101 502.401 94.25101 467.601C 94.251 432.8 122.451 404.601 157.251 404.601z" stroke="none" fill="#000000" fill-rule="nonzero" />
	<g>
	</g>
    <path d="M753.851 949.3L753.851 892.2L753.851 857.2L753.851 822.2L753.851 673.7L741.351 673.7L237.751 673.7L225.251 673.7L225.251 822.1L225.251 857.1L225.251 892.1L225.251 949.19995C 225.251 965.69995 238.751 979.19995 255.251 979.19995L255.251 979.19995L723.851 979.19995C 740.351 979.3 753.851 965.8 753.851 949.3zM359.551 796.5L619.551 796.5C 634.651 796.5 647.151 807.601 649.25104 822.101C 649.45105 823.5 649.551 825 649.551 826.5C 649.551 843.101 636.151 856.5 619.551 856.5L619.551 856.5L359.55103 856.5C 342.95102 856.5 329.55103 843.101 329.55103 826.5C 329.55103 825 329.65103 823.601 329.851 822.101C 331.951 807.601 344.451 796.5 359.551 796.5z" stroke="none" fill="#000000" fill-rule="nonzero" />
</g>
</svg>